<?xml version="1.0" standalone="no"?>
<!DOCTYPE svg PUBLIC "-//W3C//DTD SVG 20010904//EN"
 "http://www.w3.org/TR/2001/REC-SVG-20010904/DTD/svg10.dtd">
<svg version="1.0" xmlns="http://www.w3.org/2000/svg"
 width="771.000000pt" height="298.000000pt" viewBox="0 0 771.000000 298.000000"
 preserveAspectRatio="xMidYMid meet">

<g transform="translate(0.000000,298.000000) scale(0.100000,-0.100000)"
fill="#000000" stroke="none">
<path d="M0 2960 c0 -20 7 -20 3855 -20 3848 0 3855 0 3855 20 0 20 -7 20
-3855 20 -3848 0 -3855 0 -3855 -20z"/>
<path d="M1293 2090 c-63 -38 -138 -166 -175 -297 -28 -101 -30 -245 -4 -321
37 -110 133 -192 224 -192 41 0 42 -1 42 -35 0 -95 -80 -214 -176 -261 -62
-30 -161 -37 -225 -16 -58 20 -101 72 -106 129 -5 46 -3 52 41 103 52 61 72
114 56 154 -8 22 -16 26 -47 26 -50 0 -98 -35 -126 -90 -17 -36 -22 -62 -21
-127 0 -70 4 -90 30 -139 53 -104 156 -154 319 -154 258 0 386 124 415 400 10
103 12 644 1 750 -6 64 -6 64 -41 71 -19 4 -67 9 -105 13 -59 5 -75 3 -102
-14z m77 -140 c19 0 22 -48 20 -290 -1 -183 -5 -257 -13 -262 -49 -31 -123 23
-148 109 -21 71 -18 264 4 330 28 81 77 130 115 117 8 -2 17 -4 22 -4z"/>
<path d="M2777 2064 c-3 -11 -9 -79 -12 -151 l-7 -133 -73 0 c-88 0 -125 -12
-125 -39 0 -26 25 -39 97 -52 32 -6 65 -12 74 -15 15 -4 17 -32 15 -277 -1
-258 0 -276 22 -345 17 -54 33 -84 66 -117 41 -43 45 -45 99 -45 68 0 97 22
150 112 l34 57 22 -55 c25 -59 70 -104 105 -104 13 0 37 -5 55 -11 17 -6 42
-8 56 -5 54 14 116 92 150 191 5 16 10 11 26 -29 44 -116 149 -138 234 -50
l43 43 6 -30 c3 -17 23 -48 43 -69 33 -32 48 -39 111 -50 86 -14 107 -5 150
65 54 87 52 86 46 10 l-6 -70 -68 -65 c-82 -78 -108 -113 -154 -206 -52 -106
-72 -200 -67 -323 1 -25 11 -44 44 -76 47 -47 103 -65 207 -65 76 0 105 12
130 52 45 74 52 121 59 393 5 215 8 259 20 257 8 -2 27 0 42 3 22 5 29 12 29
31 0 20 -7 26 -46 36 l-46 13 4 185 c3 149 8 191 21 217 l17 33 -37 17 -37 18
0 102 c-1 96 -3 104 -27 128 -21 21 -135 71 -231 102 -9 2 -37 -4 -62 -15
-103 -46 -166 -232 -166 -491 0 -85 -3 -104 -26 -150 -39 -77 -80 -87 -107
-28 -29 64 -30 183 -1 309 5 23 2 30 -25 45 -31 18 -31 19 -31 98 0 120 -23
159 -115 198 -70 30 -156 44 -199 33 -30 -7 -82 -61 -107 -109 -27 -51 -55
-166 -63 -252 -8 -83 -41 -222 -68 -285 -40 -93 -93 -117 -125 -57 -15 27 -19
63 -21 217 -2 102 -1 236 3 298 7 110 8 114 33 123 14 6 73 11 131 12 58 1
109 6 113 11 12 18 -12 45 -50 56 -20 5 -71 10 -112 10 -41 0 -81 4 -89 9 -11
7 -12 31 -5 127 5 66 9 123 9 129 0 15 -50 35 -104 42 -42 5 -50 3 -54 -13z
m1356 -474 c34 -40 46 -127 24 -178 -9 -20 -18 -72 -22 -114 -13 -164 -83
-308 -150 -308 -57 0 -80 86 -73 274 7 165 32 249 93 313 52 54 91 58 128 13z
m-699 10 c48 -18 85 -143 53 -178 -11 -11 -20 -55 -27 -127 -20 -202 -51 -291
-109 -315 -76 -31 -104 21 -109 205 -6 202 38 361 112 406 35 22 45 23 80 9z
m711 -1191 c-17 -82 -54 -146 -89 -155 -156 -39 -119 326 51 516 l48 54 3
-172 c2 -123 -2 -191 -13 -243z"/>
<path d="M5046 1719 c-74 -65 -122 -204 -132 -387 -15 -258 -130 -452 -174
-293 -13 47 -13 221 1 297 5 32 19 88 31 123 20 62 20 64 2 82 -20 20 -101 39
-164 39 -47 0 -63 18 -55 63 12 62 -37 81 -103 40 -23 -14 -23 -15 -17 -166 6
-138 2 -210 -21 -365 -7 -42 -6 -44 17 -40 39 5 61 74 89 281 13 94 20 104 66
93 25 -7 26 -8 18 -69 -12 -101 -6 -270 11 -339 23 -87 59 -147 101 -164 75
-31 135 -6 182 77 l30 51 12 -36 c18 -54 71 -106 108 -106 17 0 43 -5 58 -11
16 -5 39 -7 51 -4 43 10 100 73 129 142 15 36 30 59 32 52 15 -53 46 -98 81
-117 69 -39 122 -24 185 50 l36 43 0 -40 c0 -61 9 -82 38 -93 42 -16 89 -22
121 -16 28 6 29 8 36 88 12 148 56 346 75 346 6 0 10 -57 10 -142 0 -169 9
-212 50 -233 35 -18 91 -19 111 -3 9 7 21 42 28 78 15 76 72 253 99 307 l20
37 -1 -134 c-1 -145 15 -226 55 -283 41 -58 139 -75 198 -34 38 25 93 119 114
192 30 110 29 145 -5 145 -13 0 -21 -12 -29 -42 -34 -134 -54 -177 -95 -204
-32 -21 -61 -10 -75 29 -30 83 -20 326 16 403 20 42 12 67 -32 101 -25 19 -51
28 -89 31 -52 4 -54 4 -71 -29 -10 -19 -48 -117 -85 -219 l-68 -185 -1 172 0
172 -30 16 c-40 20 -104 19 -126 -2 -25 -25 -62 -114 -89 -213 l-24 -85 0 211
-1 212 -44 11 c-25 6 -58 11 -74 11 l-29 0 -6 -217 c-5 -181 -9 -229 -26 -283
-30 -95 -54 -130 -90 -130 -25 0 -32 6 -46 44 -13 35 -16 65 -12 152 3 60 8
125 12 144 5 31 3 37 -23 51 -30 17 -30 18 -33 112 -3 77 -8 101 -25 123 -29
40 -144 86 -225 91 -63 4 -68 3 -103 -28z m209 -131 c37 -33 56 -127 33 -166
-9 -15 -19 -58 -22 -97 -24 -253 -66 -355 -148 -355 -25 0 -32 7 -51 48 -20
42 -22 63 -22 197 0 128 4 161 23 224 37 117 79 167 144 170 9 1 28 -9 43 -21z"/>
<path d="M1712 1661 c-6 -3 -15 -137 -22 -311 -17 -404 -17 -405 110 -398 l54
3 21 111 c25 122 49 204 75 247 17 28 18 26 22 -110 6 -190 27 -227 130 -226
48 1 110 30 127 60 7 13 11 11 22 -13 21 -44 92 -75 186 -81 109 -8 188 10
230 52 59 59 42 100 -85 203 -50 40 -107 92 -128 114 -33 37 -36 45 -31 85 9
87 87 128 151 80 21 -17 41 -24 54 -20 27 7 58 56 67 105 6 30 3 40 -15 58
-21 21 -29 22 -109 17 -97 -5 -175 -31 -239 -78 -95 -70 -105 -173 -26 -276
14 -18 67 -67 119 -108 52 -41 99 -83 105 -94 26 -50 2 -81 -62 -81 -24 0 -53
13 -98 45 -35 25 -74 45 -86 45 -21 0 -21 1 -7 43 8 23 16 65 17 92 1 45 -1
50 -21 53 -18 3 -24 -3 -28 -25 -16 -77 -38 -134 -64 -162 -35 -38 -46 -39
-68 -4 -15 23 -17 49 -15 200 3 194 -7 237 -56 250 -61 15 -111 -42 -169 -191
-14 -39 -30 -75 -35 -81 -4 -5 -8 77 -8 182 0 172 -2 192 -17 198 -31 13 -91
22 -101 16z"/>
</g>
</svg>
